<?xml version="1.0" encoding="UTF-8" standalone="no"?>
<!DOCTYPE svg PUBLIC "-//W3C//DTD SVG 1.1//EN"
 "http://www.w3.org/Graphics/SVG/1.1/DTD/svg11.dtd">
<!-- Generated by graphviz version 12.2.1 (20241206.2353)
 -->
<!-- Pages: 1 -->
<svg width="1152pt" height="936pt"
 viewBox="0.00 0.00 1152.40 936.48" xmlns="http://www.w3.org/2000/svg" xmlns:xlink="http://www.w3.org/1999/xlink">
<g id="graph0" class="graph" transform="scale(1 1) rotate(0) translate(36 900.48)">
<polygon fill="white" stroke="none" points="-36,36 -36,-900.48 1116.4,-900.48 1116.4,36 -36,36"/>
<g id="clust1" class="cluster">
<title>cluster_edge_</title>
<polygon fill="none" stroke="black" points="666.66,-8 666.66,-348 1002.65,-348 1002.65,-8 666.66,-8"/>
<text text-anchor="middle" x="834.65" y="-330.7" font-family="Times,serif" font-size="14.00">Edge</text>
</g>
<g id="clust2" class="cluster">
<title>cluster_node_</title>
<polygon fill="none" stroke="black" points="186.97,-52 186.97,-291 451.89,-291 451.89,-52 186.97,-52"/>
<text text-anchor="middle" x="319.43" y="-273.7" font-family="Times,serif" font-size="14.00">Node</text>
</g>
<!-- line_0_l -->
<!-- line_0_r -->
<!-- line_0_l&#45;&gt;line_0_r -->
<g id="edge1" class="edge">
<title>line_0_l&#45;&gt;line_0_r</title>
<path fill="none" stroke="black" d="M768.53,-34C807.42,-34 860.48,-34 899.54,-34"/>
<polygon fill="black" stroke="black" points="768.73,-30.5 758.73,-34 768.73,-37.5 768.73,-30.5"/>
<polygon fill="black" stroke="black" points="899.41,-37.5 909.41,-34 899.41,-30.5 899.41,-37.5"/>
<text text-anchor="middle" x="857.27" y="-37.2" font-family="Times,serif" font-size="14.00">exposes</text>
</g>
<!-- line_1_l -->
<!-- line_1_r -->
<!-- line_1_l&#45;&gt;line_1_r -->
<g id="edge2" class="edge">
<title>line_1_l&#45;&gt;line_1_r</title>
<path fill="none" stroke="black" d="M757.21,-87C796.56,-87 856.55,-87 899.56,-87"/>
<polygon fill="black" stroke="black" points="899.41,-90.5 909.41,-87 899.41,-83.5 899.41,-90.5"/>
<text text-anchor="middle" x="857.27" y="-90.2" font-family="Times,serif" font-size="14.00">links</text>
</g>
<!-- line_2_l -->
<!-- line_2_r -->
<!-- line_2_l&#45;&gt;line_2_r -->
<g id="edge3" class="edge">
<title>line_2_l&#45;&gt;line_2_r</title>
<path fill="none" stroke="black" stroke-dasharray="5,2" d="M768.53,-140C807.42,-140 860.48,-140 899.54,-140"/>
<polygon fill="black" stroke="black" points="768.73,-136.5 758.73,-140 768.73,-143.5 768.73,-136.5"/>
<polygon fill="black" stroke="black" points="899.41,-143.5 909.41,-140 899.41,-136.5 899.41,-143.5"/>
<text text-anchor="middle" x="857.27" y="-143.2" font-family="Times,serif" font-size="14.00">volumes_rw</text>
</g>
<!-- line_3_l -->
<!-- line_3_r -->
<!-- line_3_l&#45;&gt;line_3_r -->
<g id="edge4" class="edge">
<title>line_3_l&#45;&gt;line_3_r</title>
<path fill="none" stroke="black" stroke-dasharray="5,2" d="M757.21,-193C796.56,-193 856.55,-193 899.56,-193"/>
<polygon fill="black" stroke="black" points="899.41,-196.5 909.41,-193 899.41,-189.5 899.41,-196.5"/>
<text text-anchor="middle" x="857.27" y="-196.2" font-family="Times,serif" font-size="14.00">volumes_ro</text>
</g>
<!-- line_4_l -->
<!-- line_4_r -->
<!-- line_4_l&#45;&gt;line_4_r -->
<g id="edge5" class="edge">
<title>line_4_l&#45;&gt;line_4_r</title>
<path fill="none" stroke="black" stroke-dasharray="1,5" d="M757.21,-246C796.56,-246 856.55,-246 899.56,-246"/>
<polygon fill="black" stroke="black" points="899.41,-249.5 909.41,-246 899.41,-242.5 899.41,-249.5"/>
<text text-anchor="middle" x="857.27" y="-249.2" font-family="Times,serif" font-size="14.00">depends_on</text>
</g>
<!-- line_5_l -->
<!-- line_5_r -->
<!-- line_5_l&#45;&gt;line_5_r -->
<g id="edge6" class="edge">
<title>line_5_l&#45;&gt;line_5_r</title>
<path fill="none" stroke="black" d="M766.08,-297C805.51,-297 860.62,-297 900.59,-297"/>
<ellipse fill="black" stroke="black" cx="761.71" cy="-297" rx="4" ry="4"/>
<polygon fill="black" stroke="black" points="910.43,-300.5 900.43,-297 910.43,-293.5 910.43,-300.5"/>
<text text-anchor="middle" x="857.27" y="-300.2" font-family="Times,serif" font-size="14.00">extends</text>
</g>
<!-- service -->
<g id="node13" class="node">
<title>service</title>
<polygon fill="none" stroke="black" points="286.43,-96 229.93,-96 229.93,-92 225.93,-92 225.93,-88 229.93,-88 229.93,-68 225.93,-68 225.93,-64 229.93,-64 229.93,-60 286.43,-60 286.43,-96"/>
<polyline fill="none" stroke="black" points="229.93,-92 233.93,-92 233.93,-88 229.93,-88"/>
<polyline fill="none" stroke="black" points="229.93,-68 233.93,-68 233.93,-64 229.93,-64"/>
<text text-anchor="middle" x="258.18" y="-72.95" font-family="Times,serif" font-size="14.00">Service</text>
</g>
<!-- volume -->
<g id="node14" class="node">
<title>volume</title>
<path fill="none" stroke="black" d="M428.77,-94.73C428.77,-96.53 415.61,-98 399.4,-98 383.19,-98 370.02,-96.53 370.02,-94.73 370.02,-94.73 370.02,-65.27 370.02,-65.27 370.02,-63.47 383.19,-62 399.4,-62 415.61,-62 428.77,-63.47 428.77,-65.27 428.77,-65.27 428.77,-94.73 428.77,-94.73"/>
<path fill="none" stroke="black" d="M428.77,-94.73C428.77,-92.92 415.61,-91.45 399.4,-91.45 383.19,-91.45 370.02,-92.92 370.02,-94.73"/>
<text text-anchor="middle" x="399.4" y="-74.95" font-family="Times,serif" font-size="14.00">Volume</text>
</g>
<!-- network -->
<g id="node15" class="node">
<title>network</title>
<polygon fill="none" stroke="black" points="311.54,-137.56 258.18,-150 204.83,-137.56 225.21,-117.44 291.16,-117.44 311.54,-137.56"/>
<text text-anchor="middle" x="258.18" y="-126.95" font-family="Times,serif" font-size="14.00">Network</text>
</g>
<!-- port -->
<g id="node16" class="node">
<title>port</title>
<ellipse fill="none" stroke="black" cx="399.4" cy="-140" rx="26.27" ry="26.27"/>
<text text-anchor="middle" x="399.4" y="-134.95" font-family="Times,serif" font-size="14.00">Port</text>
</g>
<!-- port&#45;&gt;line_2_l -->
<!-- env_file -->
<g id="node17" class="node">
<title>env_file</title>
<polygon fill="none" stroke="black" points="289.43,-204 238.93,-204 238.93,-208 226.93,-208 226.93,-168 289.43,-168 289.43,-204"/>
<polyline fill="none" stroke="black" points="226.93,-204 238.93,-204"/>
<text text-anchor="middle" x="258.18" y="-180.95" font-family="Times,serif" font-size="14.00">Env File</text>
</g>
<!-- profile -->
<g id="node18" class="node">
<title>profile</title>
<polygon fill="none" stroke="black" points="354.9,-189.44 399.4,-177 443.89,-189.44 443.85,-209.56 354.94,-209.56 354.9,-189.44"/>
<text text-anchor="middle" x="399.4" y="-189.95" font-family="Times,serif" font-size="14.00">Profile</text>
</g>
<!-- cgroup -->
<g id="node19" class="node">
<title>cgroup</title>
<polygon fill="none" stroke="black" points="258.18,-258 194.97,-240 258.18,-222 321.4,-240 258.18,-258"/>
<text text-anchor="middle" x="258.18" y="-234.95" font-family="Times,serif" font-size="14.00">CGroupe</text>
</g>
<!-- device -->
<g id="node20" class="node">
<title>device</title>
<polygon fill="none" stroke="black" points="426.52,-257 376.27,-257 372.27,-253 372.27,-221 422.52,-221 426.52,-225 426.52,-257"/>
<polyline fill="none" stroke="black" points="422.52,-253 372.27,-253"/>
<polyline fill="none" stroke="black" points="422.52,-253 422.52,-221"/>
<polyline fill="none" stroke="black" points="422.52,-253 426.52,-257"/>
<text text-anchor="middle" x="399.4" y="-233.95" font-family="Times,serif" font-size="14.00">Device</text>
</g>
<!-- inv -->
<!-- inv&#45;&gt;network -->
<!-- namenode -->
<g id="node22" class="node">
<title>namenode</title>
<polygon fill="none" stroke="black" points="893.4,-647 821.15,-647 821.15,-643 817.15,-643 817.15,-639 821.15,-639 821.15,-619 817.15,-619 817.15,-615 821.15,-615 821.15,-611 893.4,-611 893.4,-647"/>
<polyline fill="none" stroke="black" points="821.15,-643 825.15,-643 825.15,-639 821.15,-639"/>
<polyline fill="none" stroke="black" points="821.15,-619 825.15,-619 825.15,-615 821.15,-615"/>
<text text-anchor="middle" x="857.27" y="-623.95" font-family="Times,serif" font-size="14.00">namenode</text>
</g>
<!-- examples -->
<g id="node23" class="node">
<title>examples</title>
<path fill="none" stroke="black" d="M1080.4,-833.73C1080.4,-835.53 1065.22,-837 1046.53,-837 1027.83,-837 1012.65,-835.53 1012.65,-833.73 1012.65,-833.73 1012.65,-804.27 1012.65,-804.27 1012.65,-802.47 1027.83,-801 1046.53,-801 1065.22,-801 1080.4,-802.47 1080.4,-804.27 1080.4,-804.27 1080.4,-833.73 1080.4,-833.73"/>
<path fill="none" stroke="black" d="M1080.4,-833.73C1080.4,-831.92 1065.22,-830.45 1046.53,-830.45 1027.83,-830.45 1012.65,-831.92 1012.65,-833.73"/>
<text text-anchor="middle" x="1046.53" y="-813.95" font-family="Times,serif" font-size="14.00">examples</text>
</g>
<!-- namenode&#45;&gt;examples -->
<g id="edge9" class="edge">
<title>namenode&#45;&gt;examples</title>
<path fill="none" stroke="black" stroke-dasharray="5,2" d="M883.89,-655C919.45,-691.07 983.41,-755.98 1019.29,-792.38"/>
<polygon fill="black" stroke="black" points="886.8,-652.96 877.29,-648.3 881.82,-657.88 886.8,-652.96"/>
<polygon fill="black" stroke="black" points="1016.78,-794.81 1026.29,-799.48 1021.76,-789.9 1016.78,-794.81"/>
<text text-anchor="middle" x="953.02" y="-776.28" font-family="Times,serif" font-size="14.00">/data</text>
</g>
<!-- 0.0.0.050070 -->
<g id="node24" class="node">
<title>0.0.0.050070</title>
<ellipse fill="none" stroke="black" cx="543.9" cy="-720" rx="62.61" ry="62.61"/>
<text text-anchor="middle" x="543.9" y="-714.95" font-family="Times,serif" font-size="14.00">0.0.0.0:50070</text>
</g>
<!-- 0.0.0.050070&#45;&gt;namenode -->
<g id="edge10" class="edge">
<title>0.0.0.050070&#45;&gt;namenode</title>
<path fill="none" stroke="black" d="M604.2,-702.67C664.12,-685.16 755.45,-658.47 810.16,-642.48"/>
<polygon fill="black" stroke="black" points="810.86,-645.92 819.47,-639.75 808.89,-639.2 810.86,-645.92"/>
<text text-anchor="middle" x="715.77" y="-698.79" font-family="Times,serif" font-size="14.00">50070</text>
</g>
<!-- 0.0.0.09000 -->
<g id="node25" class="node">
<title>0.0.0.09000</title>
<ellipse fill="none" stroke="black" cx="543.9" cy="-411" rx="58" ry="58"/>
<text text-anchor="middle" x="543.9" y="-405.95" font-family="Times,serif" font-size="14.00">0.0.0.0:9000</text>
</g>
<!-- 0.0.0.09000&#45;&gt;namenode -->
<g id="edge11" class="edge">
<title>0.0.0.09000&#45;&gt;namenode</title>
<path fill="none" stroke="black" d="M602.04,-416.03C659.62,-423.96 747.66,-444.33 803.15,-496.5 832.48,-524.08 845.97,-570 851.92,-599.89"/>
<polygon fill="black" stroke="black" points="848.42,-600.16 853.64,-609.38 855.3,-598.91 848.42,-600.16"/>
<text text-anchor="middle" x="715.77" y="-499.7" font-family="Times,serif" font-size="14.00">9000</text>
</g>
<!-- .env -->
<g id="node26" class="node">
<title>.env</title>
<polygon fill="none" stroke="black" points="89.61,-523 47.61,-523 47.61,-527 35.61,-527 35.61,-487 89.61,-487 89.61,-523"/>
<polyline fill="none" stroke="black" points="35.61,-523 47.61,-523"/>
<text text-anchor="middle" x="62.61" y="-499.95" font-family="Times,serif" font-size="14.00">.env</text>
</g>
<!-- .env&#45;&gt;namenode -->
<g id="edge12" class="edge">
<title>.env&#45;&gt;namenode</title>
<path fill="none" stroke="black" d="M89.62,-523.36C113.65,-539.27 150.98,-561.35 186.97,-572 450.37,-649.93 530.53,-586.36 803.15,-620 805.31,-620.27 807.51,-620.56 809.73,-620.87"/>
<polygon fill="black" stroke="black" points="809,-624.3 819.41,-622.33 810.04,-617.38 809,-624.3"/>
</g>
<!-- datanode -->
<g id="node27" class="node">
<title>datanode</title>
<polygon fill="none" stroke="black" points="576.27,-837 511.52,-837 511.52,-833 507.52,-833 507.52,-829 511.52,-829 511.52,-809 507.52,-809 507.52,-805 511.52,-805 511.52,-801 576.27,-801 576.27,-837"/>
<polyline fill="none" stroke="black" points="511.52,-833 515.52,-833 515.52,-829 511.52,-829"/>
<polyline fill="none" stroke="black" points="511.52,-809 515.52,-809 515.52,-805 511.52,-805"/>
<text text-anchor="middle" x="543.9" y="-813.95" font-family="Times,serif" font-size="14.00">datanode</text>
</g>
<!-- .env&#45;&gt;datanode -->
<g id="edge14" class="edge">
<title>.env&#45;&gt;datanode</title>
<path fill="none" stroke="black" d="M74.61,-523.22C88.44,-544.92 113.94,-581.21 143.22,-605 265.31,-704.17 342.47,-658.79 459.4,-764 470.39,-773.9 466.04,-782.52 477.4,-792 484.24,-797.71 492.45,-802.34 500.71,-806.06"/>
<polygon fill="black" stroke="black" points="499.12,-809.19 509.7,-809.72 501.75,-802.71 499.12,-809.19"/>
</g>
<!-- resourcemanager -->
<g id="node28" class="node">
<title>resourcemanager</title>
<polygon fill="none" stroke="black" points="598.4,-523 489.4,-523 489.4,-519 485.4,-519 485.4,-515 489.4,-515 489.4,-495 485.4,-495 485.4,-491 489.4,-491 489.4,-487 598.4,-487 598.4,-523"/>
<polyline fill="none" stroke="black" points="489.4,-519 493.4,-519 493.4,-515 489.4,-515"/>
<polyline fill="none" stroke="black" points="489.4,-495 493.4,-495 493.4,-491 489.4,-491"/>
<text text-anchor="middle" x="543.9" y="-499.95" font-family="Times,serif" font-size="14.00">resourcemanager</text>
</g>
<!-- .env&#45;&gt;resourcemanager -->
<g id="edge17" class="edge">
<title>.env&#45;&gt;resourcemanager</title>
<path fill="none" stroke="black" d="M88.51,-486.6C112.37,-470.19 150.12,-447.36 186.97,-438 244.88,-423.29 262.3,-429.26 321.4,-438 378.55,-446.46 441.39,-466.55 485.49,-482.55"/>
<polygon fill="black" stroke="black" points="484.27,-485.83 494.87,-485.99 486.69,-479.26 484.27,-485.83"/>
</g>
<!-- nodemanager -->
<g id="node30" class="node">
<title>nodemanager</title>
<polygon fill="none" stroke="black" points="302.93,-391 213.43,-391 213.43,-387 209.43,-387 209.43,-383 213.43,-383 213.43,-363 209.43,-363 209.43,-359 213.43,-359 213.43,-355 302.93,-355 302.93,-391"/>
<polyline fill="none" stroke="black" points="213.43,-387 217.43,-387 217.43,-383 213.43,-383"/>
<polyline fill="none" stroke="black" points="213.43,-363 217.43,-363 217.43,-359 213.43,-359"/>
<text text-anchor="middle" x="258.18" y="-367.95" font-family="Times,serif" font-size="14.00">nodemanager</text>
</g>
<!-- .env&#45;&gt;nodemanager -->
<g id="edge19" class="edge">
<title>.env&#45;&gt;nodemanager</title>
<path fill="none" stroke="black" d="M73.43,-486.58C86.42,-464 111.42,-426.11 143.22,-405 160.69,-393.4 182.34,-385.97 202.06,-381.22"/>
<polygon fill="black" stroke="black" points="202.6,-384.68 211.61,-379.11 201.1,-377.84 202.6,-384.68"/>
</g>
<!-- historyserver -->
<g id="node31" class="node">
<title>historyserver</title>
<polygon fill="none" stroke="black" points="301.43,-337 214.93,-337 214.93,-333 210.93,-333 210.93,-329 214.93,-329 214.93,-309 210.93,-309 210.93,-305 214.93,-305 214.93,-301 301.43,-301 301.43,-337"/>
<polyline fill="none" stroke="black" points="214.93,-333 218.93,-333 218.93,-329 214.93,-329"/>
<polyline fill="none" stroke="black" points="214.93,-309 218.93,-309 218.93,-305 214.93,-305"/>
<text text-anchor="middle" x="258.18" y="-313.95" font-family="Times,serif" font-size="14.00">historyserver</text>
</g>
<!-- .env&#45;&gt;historyserver -->
<g id="edge23" class="edge">
<title>.env&#45;&gt;historyserver</title>
<path fill="none" stroke="black" d="M72.15,-486.7C88.95,-452.9 129.7,-380.92 186.97,-346 192.47,-342.65 198.46,-339.58 204.54,-336.82"/>
<polygon fill="black" stroke="black" points="205.57,-340.19 213.41,-333.05 202.83,-333.74 205.57,-340.19"/>
</g>
<!-- actividad7 -->
<g id="node34" class="node">
<title>actividad7</title>
<polygon fill="none" stroke="black" points="294.31,-765 222.06,-765 222.06,-761 218.06,-761 218.06,-757 222.06,-757 222.06,-737 218.06,-737 218.06,-733 222.06,-733 222.06,-729 294.31,-729 294.31,-765"/>
<polyline fill="none" stroke="black" points="222.06,-761 226.06,-761 226.06,-757 222.06,-757"/>
<polyline fill="none" stroke="black" points="222.06,-737 226.06,-737 226.06,-733 222.06,-733"/>
<text text-anchor="middle" x="258.18" y="-741.95" font-family="Times,serif" font-size="14.00">actividad7</text>
</g>
<!-- .env&#45;&gt;actividad7 -->
<g id="edge26" class="edge">
<title>.env&#45;&gt;actividad7</title>
<path fill="none" stroke="black" d="M71.81,-523.09C84.75,-550.57 111.68,-603.77 143.22,-643 167.18,-672.8 199.86,-701.71 224.08,-721.45"/>
<polygon fill="black" stroke="black" points="221.75,-724.06 231.73,-727.6 226.13,-718.61 221.75,-724.06"/>
</g>
<!-- datanode&#45;&gt;namenode -->
<g id="edge15" class="edge">
<title>datanode&#45;&gt;namenode</title>
<path fill="none" stroke="black" stroke-dasharray="1,5" d="M576.45,-813.19C628.73,-802.19 734.35,-774.07 803.15,-716 821.69,-700.35 835.61,-676.51 844.54,-657.74"/>
<polygon fill="black" stroke="black" points="847.67,-659.31 848.59,-648.76 841.29,-656.43 847.67,-659.31"/>
</g>
<!-- datanode&#45;&gt;examples -->
<g id="edge13" class="edge">
<title>datanode&#45;&gt;examples</title>
<path fill="none" stroke="black" stroke-dasharray="5,2" d="M587.83,-819C681.95,-819 905.6,-819 1001.08,-819"/>
<polygon fill="black" stroke="black" points="588.11,-815.5 578.11,-819 588.11,-822.5 588.11,-815.5"/>
<polygon fill="black" stroke="black" points="1000.83,-822.5 1010.83,-819 1000.83,-815.5 1000.83,-822.5"/>
<text text-anchor="middle" x="857.27" y="-822.2" font-family="Times,serif" font-size="14.00">/data</text>
</g>
<!-- resourcemanager&#45;&gt;namenode -->
<g id="edge18" class="edge">
<title>resourcemanager&#45;&gt;namenode</title>
<path fill="none" stroke="black" stroke-dasharray="1,5" d="M598.89,-512C653.36,-520.85 738.44,-539.67 803.15,-577 814.62,-583.62 825.42,-593.28 834.26,-602.49"/>
<polygon fill="black" stroke="black" points="831.43,-604.58 840.76,-609.6 836.6,-599.86 831.43,-604.58"/>
</g>
<!-- 0.0.0.08088 -->
<g id="node29" class="node">
<title>0.0.0.08088</title>
<ellipse fill="none" stroke="black" cx="258.18" cy="-505" rx="58" ry="58"/>
<text text-anchor="middle" x="258.18" y="-499.95" font-family="Times,serif" font-size="14.00">0.0.0.0:8088</text>
</g>
<!-- 0.0.0.08088&#45;&gt;resourcemanager -->
<g id="edge16" class="edge">
<title>0.0.0.08088&#45;&gt;resourcemanager</title>
<path fill="none" stroke="black" d="M316.6,-505C363.22,-505 428.97,-505 477.59,-505"/>
<polygon fill="black" stroke="black" points="477.42,-508.5 487.42,-505 477.42,-501.5 477.42,-508.5"/>
<text text-anchor="middle" x="399.4" y="-508.2" font-family="Times,serif" font-size="14.00">8088</text>
</g>
<!-- nodemanager&#45;&gt;resourcemanager -->
<g id="edge20" class="edge">
<title>nodemanager&#45;&gt;resourcemanager</title>
<path fill="none" stroke="black" stroke-dasharray="1,5" d="M303.42,-374.5C355.36,-377.19 437.25,-384.62 459.4,-405 483.99,-427.62 455.6,-452.68 477.4,-478 478.35,-479.1 479.34,-480.16 480.39,-481.17"/>
<polygon fill="black" stroke="black" points="477.98,-483.73 487.99,-487.21 482.33,-478.25 477.98,-483.73"/>
</g>
<!-- historyserver&#45;&gt;resourcemanager -->
<g id="edge24" class="edge">
<title>historyserver&#45;&gt;resourcemanager</title>
<path fill="none" stroke="black" stroke-dasharray="1,5" d="M301.89,-329.91C359.88,-344.81 456.69,-370.02 459.4,-373 491.27,-408.01 447.82,-441.03 477.4,-478 478.33,-479.16 479.31,-480.27 480.35,-481.34"/>
<polygon fill="black" stroke="black" points="478.07,-483.99 488.01,-487.64 482.52,-478.59 478.07,-483.99"/>
</g>
<!-- hadoop_historyserver -->
<g id="node32" class="node">
<title>hadoop_historyserver</title>
<path fill="none" stroke="black" d="M610.4,-331.73C610.4,-333.53 580.59,-335 543.9,-335 507.2,-335 477.4,-333.53 477.4,-331.73 477.4,-331.73 477.4,-302.27 477.4,-302.27 477.4,-300.47 507.2,-299 543.9,-299 580.59,-299 610.4,-300.47 610.4,-302.27 610.4,-302.27 610.4,-331.73 610.4,-331.73"/>
<path fill="none" stroke="black" d="M610.4,-331.73C610.4,-329.92 580.59,-328.45 543.9,-328.45 507.2,-328.45 477.4,-329.92 477.4,-331.73"/>
<text text-anchor="middle" x="543.9" y="-311.95" font-family="Times,serif" font-size="14.00">hadoop_historyserver</text>
</g>
<!-- historyserver&#45;&gt;hadoop_historyserver -->
<g id="edge21" class="edge">
<title>historyserver&#45;&gt;hadoop_historyserver</title>
<path fill="none" stroke="black" stroke-dasharray="5,2" d="M313.03,-318.62C356.15,-318.32 417.2,-317.89 465.55,-317.55"/>
<polygon fill="black" stroke="black" points="313.15,-315.12 303.17,-318.69 313.2,-322.12 313.15,-315.12"/>
<polygon fill="black" stroke="black" points="465.43,-321.05 475.41,-317.48 465.38,-314.05 465.43,-321.05"/>
<text text-anchor="middle" x="399.4" y="-321.61" font-family="Times,serif" font-size="14.00">/hadoop/yarn/timeline</text>
</g>
<!-- 0.0.0.019888 -->
<g id="node33" class="node">
<title>0.0.0.019888</title>
<ellipse fill="none" stroke="black" cx="62.61" cy="-319" rx="62.61" ry="62.61"/>
<text text-anchor="middle" x="62.61" y="-313.95" font-family="Times,serif" font-size="14.00">0.0.0.0:19888</text>
</g>
<!-- 0.0.0.019888&#45;&gt;historyserver -->
<g id="edge22" class="edge">
<title>0.0.0.019888&#45;&gt;historyserver</title>
<path fill="none" stroke="black" d="M125.66,-319C150.56,-319 178.99,-319 203.04,-319"/>
<polygon fill="black" stroke="black" points="202.94,-322.5 212.94,-319 202.94,-315.5 202.94,-322.5"/>
<text text-anchor="middle" x="160.1" y="-322.2" font-family="Times,serif" font-size="14.00">19888</text>
</g>
<!-- actividad7&#45;&gt;namenode -->
<g id="edge27" class="edge">
<title>actividad7&#45;&gt;namenode</title>
<path fill="none" stroke="black" stroke-dasharray="1,5" d="M289.65,-728.69C330.66,-705.12 406.65,-665.16 477.4,-648 594.26,-619.65 737.15,-622.07 809.5,-625.8"/>
<polygon fill="black" stroke="black" points="809.22,-629.29 819.4,-626.34 809.61,-622.3 809.22,-629.29"/>
</g>
<!-- actividad7&#45;&gt;examples -->
<g id="edge25" class="edge">
<title>actividad7&#45;&gt;examples</title>
<path fill="none" stroke="black" stroke-dasharray="5,2" d="M294.9,-771.57C308.46,-780.28 324.29,-789.72 339.4,-797 398.02,-825.27 413.26,-834.95 477.4,-846 517.08,-852.84 769.12,-845.3 893.4,-840 938.69,-838.07 952.94,-841.63 1001.29,-832.83"/>
<polygon fill="black" stroke="black" points="297.01,-768.77 286.73,-766.23 293.18,-774.63 297.01,-768.77"/>
<polygon fill="black" stroke="black" points="1001.85,-836.29 1011.02,-830.98 1000.54,-829.41 1001.85,-836.29"/>
<text text-anchor="middle" x="715.77" y="-851.18" font-family="Times,serif" font-size="14.00">/home/ubuntu/bigdata/examples</text>
</g>
<!-- actividad7&#45;&gt;datanode -->
<g id="edge28" class="edge">
<title>actividad7&#45;&gt;datanode</title>
<path fill="none" stroke="black" stroke-dasharray="1,5" d="M294.54,-755.97C346.66,-769.2 443.96,-793.89 500.05,-808.13"/>
<polygon fill="black" stroke="black" points="499.01,-811.47 509.57,-810.54 500.73,-804.69 499.01,-811.47"/>
</g>
</g>
</svg>
